Coordinates
version=1
nRows=29
nColumns=22
inDegrees=yes

Units are S.I. units (second, meters, Newtons, ...)
If the header above contains a line with 'inDegrees', this indicates whether rotational values are in degrees (yes) or radians (no).

endheader
time	pelvis_tilt	pelvis_list	pelvis_rotation	pelvis_tx	pelvis_ty	pelvis_tz	hip_flexion_r	hip_adduction_r	hip_rotation_r	knee_angle_r	ankle_angle_r	subtalar_angle_r	hip_flexion_l	hip_adduction_l	hip_rotation_l	knee_angle_l	ankle_angle_l	subtalar_angle_l	lumbar_extension	lumbar_bending	lumbar_rotation
      3.74000000	     -1.04291411	     -0.35435848	    176.42163329	     -0.10947211	      1.04651411	     -0.51086690	    -10.87153707	     -6.42317959	     -6.61768825	    -20.43994697	     16.72757812	      8.22046191	     22.97231577	     -2.18977621	    -21.59976734	    -13.74810081	      5.53585481	     -9.88708834	     -5.16689756	     -6.02933712	      1.49505153
      3.75000000	     -1.07355550	     -0.65132391	    176.68958411	     -0.12134123	      1.04622104	     -0.50722236	    -11.11083264	     -6.94761872	     -6.48589505	    -21.32874163	     15.99734855	      9.19519271	     22.53551754	     -1.68392015	    -21.78627704	    -14.04553463	      4.73978455	    -10.33216290	     -4.84698373	     -6.32465204	      1.43262467
      3.76000000	     -1.09021343	     -1.01114308	    177.02045817	     -0.13327873	      1.04621342	     -0.50322345	    -11.27079988	     -7.53325301	     -6.37610281	    -22.33870196	     15.10338801	     10.25459200	     22.06094609	     -1.03720407	    -21.89439789	    -14.25204229	      3.80096226	    -10.71012247	     -4.51082279	     -6.67953057	      1.34124003
      3.77000000	     -1.08321565	     -1.42840487	    177.41823555	     -0.14520577	      1.04650010	     -0.49885922	    -11.32896110	     -8.17342151	     -6.28197817	    -23.48089459	     14.01859536	     11.36909403	     21.55223024	     -0.24396854	    -21.80871157	    -14.31978380	      2.80406858	    -11.00330763	     -4.16044336	     -7.08398407	      1.23074978
      3.78000000	     -1.04798885	     -1.88028295	    177.88442850	     -0.15704805	      1.04705979	     -0.49414914	    -11.27112765	     -8.84015494	     -6.17345960	    -24.76204511	     12.72423506	     12.50360700	     21.02222613	      0.66898808	    -21.45583966	    -14.25856066	      1.83764503	    -11.23625756	     -3.80368173	     -7.51138191	      1.10178120
      3.79000000	     -0.98407278	     -2.32872292	    178.41235026	     -0.16874449	      1.04786522	     -0.48915165	    -11.08659653	     -9.48825879	     -6.00960361	    -26.18342852	     11.19166785	     13.61179945	     20.48711335	      1.64188378	    -20.82784289	    -14.11526330	      0.95393508	    -11.45421947	     -3.45187571	     -7.92109871	      0.97698367
      3.80000000	     -0.89250962	     -2.74520620	    178.99060888	     -0.18025088	      1.04885194	     -0.48394711	    -10.76755386	    -10.07926524	     -5.73601908	    -27.74493694	      9.41412779	     14.62976204	     19.97143120	      2.61415524	    -19.97825230	    -13.96091859	      0.22627967	    -11.69841488	     -3.11237692	     -8.28727733	      0.85592916
      3.81000000	     -0.78297769	     -3.10005194	    179.59862905	     -0.19152591	      1.04996489	     -0.47862743	    -10.30848982	    -10.57710849	     -5.31624054	    -29.45013389	      7.39138937	     15.50257696	     19.48590769	      3.52317176	    -18.99066708	    -13.85161870	     -0.31306429	    -11.97032224	     -2.80021610	     -8.57996662	      0.75732356
      3.82000000	     -0.66706029	     -3.38238067	    180.21534244	     -0.20254159	      1.05115204	     -0.47328269	     -9.70752109	    -10.96425008	     -4.72799943	    -31.30268843	      5.13257087	     16.20415363	     19.03177683	      4.33472548	    -17.94995067	    -13.81734100	     -0.65626215	    -12.24320644	     -2.52906165	     -8.79414973	      0.70242123
      3.83000000	     -0.54916125	     -3.61976911	    180.83727582	     -0.21331152	      1.05235266	     -0.46794975	     -8.97130564	    -11.26401071	     -3.99198967	    -33.29598939	      2.67556240	     16.68242821	     18.59797973	      5.07364486	    -16.90961150	    -13.84544563	     -0.78309326	    -12.45778324	     -2.29935766	     -8.96204141	      0.65439542
      3.84000000	     -0.44104063	     -3.79641314	    181.41974292	     -0.22380953	      1.05354564	     -0.46272484	     -8.09724499	    -11.45535193	     -3.06681668	    -35.42322139	      0.04178015	     17.07518187	     18.17264836	      5.70586272	    -15.97718774	    -13.92795829	     -0.73768789	    -12.64737058	     -2.11893452	     -9.06454806	      0.65863144
      3.85000000	     -0.35279063	     -3.95772522	    181.96778506	     -0.23406739	      1.05470404	     -0.45759962	     -7.10870587	    -11.58948367	     -2.03006484	    -37.66990377	     -2.69894627	     17.35959307	     17.71430522	      6.29165914	    -15.16423932	    -14.00084160	     -0.53783096	    -12.78109817	     -1.99327338	     -9.15071316	      0.67902402
      3.86000000	     -0.28536686	     -4.12531763	    182.48876625	     -0.24409772	      1.05581207	     -0.45255716	     -6.03006276	    -11.68576718	     -0.91972585	    -39.99792985	     -5.48980899	     17.61763754	     17.20729198	      6.86302051	    -14.47161697	    -14.03261082	     -0.23494477	    -12.88111252	     -1.91936716	     -9.24314218	      0.70577668
      3.87000000	     -0.24485628	     -4.31060274	    182.99152395	     -0.25391340	      1.05687233	     -0.44757211	     -4.89129487	    -11.75834689	      0.21748641	    -42.36487769	     -8.26208028	     17.91814146	     16.62434125	      7.44189602	    -13.88375810	    -13.98278267	      0.13084645	    -12.97338780	     -1.90088819	     -9.34981578	      0.71733252
      3.88000000	     -0.22155640	     -4.51105976	    183.49514319	     -0.26351550	      1.05787149	     -0.44260710	     -3.71045452	    -11.80557947	      1.34467091	    -44.72246732	    -10.92639734	     18.34134835	     15.97193868	      8.03385175	    -13.37044203	    -13.84190398	      0.51006593	    -13.07990599	     -1.92310298	     -9.46687955	      0.70589013
      3.89000000	     -0.21371855	     -4.72409542	    184.01228538	     -0.27291173	      1.05881910	     -0.43764537	     -2.51682872	    -11.82299072	      2.44453832	    -47.01294396	    -13.36136339	     18.89821821	     15.24289821	      8.64260440	    -12.89013027	    -13.59325807	      0.88933403	    -13.21358248	     -1.98119928	     -9.58796367	      0.63611302
      3.90000000	     -0.21411484	     -4.93774971	    184.56680936	     -0.28209768	      1.05971333	     -0.43265332	     -1.33274618	    -11.79998233	      3.49045918	    -49.18632995	    -15.44407900	     19.53626243	     14.45441282	      9.25941611	    -12.39389603	    -13.25520487	      1.24288245	    -13.37092329	     -2.06636190	     -9.70095094	      0.50138010
      3.91000000	     -0.21552389	     -5.13591125	    185.17656312	     -0.29106916	      1.06054684	     -0.42762048	     -0.17563488	    -11.72363315	      4.46289045	    -51.19968677	    -17.03654507	     20.15556715	     13.63026644	      9.86622066	    -11.83985391	    -12.85956641	      1.57814587	    -13.54392844	     -2.16898374	     -9.79041087	      0.29567025
      3.92000000	     -0.21346461	     -5.30450075	    185.84895175	     -0.29983317	      1.06132032	     -0.42255129	      0.94215873	    -11.58527739	      5.35523318	    -53.02110133	    -18.02880653	     20.64198536	     12.79344198	     10.44241306	    -11.21066068	    -12.44111181	      1.89292553	    -13.72104661	     -2.28059086	     -9.84310285	      0.01845648
      3.93000000	     -0.21265156	     -5.44665623	    186.58640535	     -0.30840001	      1.06205008	     -0.41744820	      2.00713728	    -11.40079311	      6.15474505	    -54.63290869	    -18.37925612	     20.85852359	     11.95354837	     10.98542447	    -10.48567163	    -12.03019699	      2.18136815	    -13.86737588	     -2.40515490	     -9.86586107	     -0.31327340
      3.94000000	     -0.19962957	     -5.55232229	    187.38355717	     -0.31674041	      1.06269685	     -0.41231713	      3.04090006	    -11.16900046	      6.88121632	    -56.04067677	    -18.04756951	     20.95199026	     11.15359029	     11.47974655	     -9.66611225	    -11.67520132	      2.48409147	    -14.02914145	     -2.52759537	     -9.84872636	     -0.67343830
      3.95000000	     -0.17591058	     -5.62998909	    188.23684312	     -0.32488372	      1.06327375	     -0.40714871	      4.04669955	    -10.91589358	      7.52456969	    -57.24631388	    -17.14977616	     20.88888667	     10.39392235	     11.93241431	     -8.76152802	    -11.38147445	      2.78137229	    -14.20003681	     -2.64577668	     -9.80153652	     -1.06105052
      3.96000000	     -0.13947406	     -5.68922027	    189.14529398	     -0.33282003	      1.06377238	     -0.40191994	      5.03659953	    -10.66771073	      8.07690504	    -58.26386273	    -15.82141734	     20.63304083	      9.67824938	     12.35628832	     -7.76165707	    -11.15209076	      3.07172153	    -14.39191807	     -2.75917569	     -9.73462677	     -1.46412005
      3.97000000	     -0.10571004	     -5.73459485	    190.08582488	     -0.34055243	      1.06421137	     -0.39665519	      6.01123188	    -10.43393642	      8.55615504	    -59.11274113	    -14.20623535	     20.16995836	      8.99364228	     12.75009071	     -6.69814147	    -10.99106370	      3.35906864	    -14.58785951	     -2.88315088	     -9.65268219	     -1.84059917
      3.98000000	     -0.08186494	     -5.77248743	    191.03601709	     -0.34810589	      1.06459830	     -0.39137299	      6.97168802	    -10.21958800	      8.98753887	    -59.80709285	    -12.43624010	     19.46445145	      8.33315021	     13.11340449	     -5.66120882	    -10.89316958	      3.65538497	    -14.79543604	     -3.02147256	     -9.55721172	     -2.20083686
      3.99000000	     -0.04403175	     -5.81691940	    192.01886797	     -0.35546016	      1.06491519	     -0.38602349	      7.94824899	    -10.04911990	      9.36104137	    -60.36787807	    -10.70017861	     18.75944395	      7.68866824	     13.47887519	     -4.53100335	    -10.81049914	      3.93550014	    -14.96372582	     -3.15492247	     -9.47164504	     -2.53534248
      4.00000000	     -0.01523461	     -5.85834349	    192.98784794	     -0.36264182	      1.06517593	     -0.38069361	      8.92815466	     -9.89423142	      9.71805790	    -60.80781858	     -9.00449880	     17.74840701	      7.06749310	     13.81485030	     -3.48578158	    -10.78435990	      4.22591769	    -15.16493492	     -3.30076272	     -9.38137180	     -2.83076282
      4.01000000	      0.03292502	     -5.90040632	    193.96980352	     -0.36964632	      1.06536690	     -0.37533187	      9.93692503	     -9.76587431	     10.04817021	    -61.13469600	     -7.45158670	     16.68521358	      6.46047377	     14.14446818	     -2.39886088	    -10.75287090	      4.49601246	    -15.34925632	     -3.43099144	     -9.29682569	     -3.09669422
      4.02000000	      0.09984165	     -5.94021645	    194.95706353	     -0.37648646	      1.06549001	     -0.36995929	     10.97442946	     -9.65709997	     10.35943324	    -61.35350661	     -6.03573185	     15.55111422	      5.87083174	     14.46182083	     -1.29543600	    -10.72304433	      4.74634304	    -15.52482942	     -3.54427694	     -9.21929755	     -3.32320058
